<svg xmlns="http://www.w3.org/2000/svg" viewBox="0 0 619.22 142.24"><defs><style>.cls-1{fill:#21409a;}.cls-2{fill:#ffc709;}</style></defs><title>Asset 80@2x-1003</title><g id="Layer_2" data-name="Layer 2"><g id="Layer_1-2" data-name="Layer 1"><path class="cls-1" d="M183.16,20.22v85.3q0,6,.88,8a6.13,6.13,0,0,0,2.7,3q1.83,1,6.81,1v2.53H162v-2.53q4.42,0,6-.91a6.14,6.14,0,0,0,2.52-3q.91-2.1.92-8.07V47.11q0-10.87-.5-13.37a5.87,5.87,0,0,0-1.57-3.41,4.23,4.23,0,0,0-2.78-.91A13,13,0,0,0,162,30.54l-1.19-2.45L180,20.22Z"/><path class="cls-1" d="M256.76,95.62q-2.61,12.7-10.18,19.55T229.8,122q-11,0-19.1-9.19T202.56,88q0-15.16,9-24.64a28.83,28.83,0,0,1,21.66-9.48q9.48,0,15.58,5t6.11,10.42a5.7,5.7,0,0,1-1.72,4.32,6.67,6.67,0,0,1-4.81,1.65,7.49,7.49,0,0,1-6.25-2.67Q241,71.12,240.57,67a9.17,9.17,0,0,0-2.84-6.32,10.11,10.11,0,0,0-6.81-2.11,13.93,13.93,0,0,0-11.3,5.2q-5.69,6.87-5.69,18.18a36.85,36.85,0,0,0,5.65,20.32q5.65,8.82,15.27,8.81a18.44,18.44,0,0,0,12.36-4.7q3.85-3.23,7.51-11.72Z"/><path class="cls-1" d="M303.53,110.78q-9.88,7.65-12.42,8.85a19,19,0,0,1-8.07,1.75,14.48,14.48,0,0,1-11-4.56q-4.32-4.56-4.32-12a15.32,15.32,0,0,1,2.11-8.14q2.88-4.77,10-9t23.69-10.25V74.91q0-9.61-3-13.2t-8.88-3.58a10,10,0,0,0-7,2.39A7.18,7.18,0,0,0,281.91,66l.14,4.08a7,7,0,0,1-1.65,5,5.64,5.64,0,0,1-4.31,1.75A5.46,5.46,0,0,1,271.84,75a7.16,7.16,0,0,1-1.65-5q0-6,6.18-11.1t17.34-5q8.57,0,14,2.88a13.22,13.22,0,0,1,6.1,6.81q1.27,3,1.27,12.35V97.72a98.5,98.5,0,0,0,.35,11.27,4.66,4.66,0,0,0,1.16,2.77,2.74,2.74,0,0,0,1.86.71,3.78,3.78,0,0,0,2-.5,42.47,42.47,0,0,0,5.69-5.12v3.93q-7.86,10.53-15,10.53a6.84,6.84,0,0,1-5.48-2.39Q303.6,116.54,303.53,110.78Zm0-4.56V81.72a138.09,138.09,0,0,0-13.68,6q-5.55,3.09-7.94,6.45a12.51,12.51,0,0,0-2.38,7.38,12,12,0,0,0,3,8.38,9.11,9.11,0,0,0,6.94,3.34Q294.83,113.24,303.53,106.22Z"/><path class="cls-1" d="M350.81,67.47q11.29-13.62,21.55-13.62a15.48,15.48,0,0,1,9.05,2.63q3.79,2.64,6,8.67Q389,69.36,389,78.07v27.45q0,6.11,1,8.28a5.75,5.75,0,0,0,2.49,2.74c1.15.65,3.26,1,6.35,1v2.53H367v-2.53h1.34c3,0,5.09-.46,6.28-1.37a7.21,7.21,0,0,0,2.49-4,40.86,40.86,0,0,0,.28-6.6V79.19q0-8.77-2.28-12.74c-1.52-2.64-4.08-4-7.69-4q-8.35,0-16.63,9.13v33.91c0,4.35.25,7,.77,8.07a6.42,6.42,0,0,0,2.7,3c1.15.64,3.48,1,7,1v2.53h-31.8v-2.53h1.4c3.27,0,5.49-.83,6.63-2.49s1.72-4.83,1.72-9.51V81.65q0-11.58-.52-14.11a6,6,0,0,0-1.62-3.44,4.35,4.35,0,0,0-2.91-.91,13.49,13.49,0,0,0-4.7,1l-1.06-2.53,19.38-7.86h3Z"/><path class="cls-1" d="M423.77,34.62V55.75h15v4.91h-15v41.7q0,6.24,1.79,8.42a5.69,5.69,0,0,0,4.6,2.18,8,8,0,0,0,4.49-1.44,9.31,9.31,0,0,0,3.37-4.25h2.74q-2.46,6.89-6.95,10.36a15.05,15.05,0,0,1-9.27,3.47,12.51,12.51,0,0,1-6.32-1.79,10.78,10.78,0,0,1-4.56-5.12c-1-2.23-1.47-5.65-1.47-10.29V60.66H402V58.34a26.78,26.78,0,0,0,7.9-5.23,41.22,41.22,0,0,0,7.19-8.74,78.71,78.71,0,0,0,4.49-9.75Z"/><path class="cls-1" d="M482.62,110.78q-9.89,7.65-12.42,8.85a19,19,0,0,1-8.07,1.75,14.48,14.48,0,0,1-11-4.56q-4.32-4.56-4.32-12a15.32,15.32,0,0,1,2.11-8.14q2.88-4.77,10-9t23.69-10.25V74.91q0-9.61-3.05-13.2c-2-2.38-5-3.58-8.88-3.58a10,10,0,0,0-7,2.39A7.18,7.18,0,0,0,461,66l.14,4.08a7,7,0,0,1-1.65,5,5.64,5.64,0,0,1-4.31,1.75A5.44,5.44,0,0,1,450.93,75a7.16,7.16,0,0,1-1.65-5q0-6,6.18-11.1t17.34-5q8.56,0,14,2.88a13.22,13.22,0,0,1,6.1,6.81q1.28,3,1.27,12.35V97.72a98.5,98.5,0,0,0,.35,11.27,4.66,4.66,0,0,0,1.16,2.77,2.74,2.74,0,0,0,1.86.71,3.78,3.78,0,0,0,2-.5,42.47,42.47,0,0,0,5.69-5.12v3.93q-7.86,10.53-15,10.53a6.84,6.84,0,0,1-5.48-2.39Q482.69,116.54,482.62,110.78Zm0-4.56V81.72a138.09,138.09,0,0,0-13.68,6q-5.55,3.09-7.94,6.45a12.51,12.51,0,0,0-2.38,7.38,12,12,0,0,0,3,8.38,9.14,9.14,0,0,0,6.95,3.34Q473.92,113.24,482.62,106.22Z"/><path class="cls-1" d="M530,53.85V68.31Q538,53.85,546.53,53.85a9,9,0,0,1,6.39,2.35,7.22,7.22,0,0,1,2.53,5.44,6.44,6.44,0,0,1-1.83,4.64,5.82,5.82,0,0,1-4.35,1.89c-1.64,0-3.47-.81-5.51-2.42s-3.54-2.42-4.53-2.42a4.18,4.18,0,0,0-2.74,1.4q-3.15,2.88-6.52,9.48V105q0,5.32,1.33,8.07a7.26,7.26,0,0,0,3.23,3.16,14.22,14.22,0,0,0,6.67,1.26v2.53H508.27v-2.53c3.28,0,5.71-.51,7.31-1.54A6,6,0,0,0,518,112.4a35.67,35.67,0,0,0,.35-6.81V80.67q0-11.23-.45-13.38a5.29,5.29,0,0,0-1.69-3.12,4.71,4.71,0,0,0-3-1,14,14,0,0,0-4.92,1l-.7-2.53L527,53.85Z"/><path class="cls-1" d="M596.61,110.78q-9.9,7.65-12.42,8.85a19,19,0,0,1-8.08,1.75,14.47,14.47,0,0,1-11-4.56q-4.32-4.56-4.32-12a15.23,15.23,0,0,1,2.11-8.14q2.88-4.77,10-9t23.69-10.25V74.91q0-9.61-3.05-13.2t-8.88-3.58a10,10,0,0,0-7,2.39A7.18,7.18,0,0,0,575,66l.14,4.08a7,7,0,0,1-1.65,5,5.65,5.65,0,0,1-4.32,1.75A5.44,5.44,0,0,1,564.92,75a7.16,7.16,0,0,1-1.65-5q0-6,6.18-11.1t17.33-5q8.57,0,14,2.88a13.19,13.19,0,0,1,6.11,6.81q1.26,3,1.27,12.35V97.72a98.5,98.5,0,0,0,.35,11.27,4.73,4.73,0,0,0,1.15,2.77,2.76,2.76,0,0,0,1.87.71,3.81,3.81,0,0,0,2-.5,43.12,43.12,0,0,0,5.69-5.12v3.93q-7.87,10.53-15,10.53a6.83,6.83,0,0,1-5.47-2.39Q596.68,116.54,596.61,110.78Zm0-4.56V81.72a139.81,139.81,0,0,0-13.69,6q-5.53,3.09-7.93,6.45a12.52,12.52,0,0,0-2.39,7.38,12,12,0,0,0,3,8.38,9.13,9.13,0,0,0,7,3.34Q587.91,113.24,596.61,106.22Z"/><path class="cls-1" d="M102.86,115.68q4.1,9.73,4.1,14.25a7.15,7.15,0,0,1-2.92,5.75q-2.92,2.35-11.23,2.76v3.8h54.86v-3.8q-8.5-.51-13.28-4.66t-10.61-18.1l-7.5-17.91a123.44,123.44,0,0,1-18.47,5.9Z"/><path class="cls-1" d="M68,31.89,93,92.17a166.64,166.64,0,0,0,19.46-3.58L75.37,0H71.78l-38,89c2.89.68,5.86,1.31,8.93,1.85Q55.35,61.36,68,31.89Z"/><path class="cls-1" d="M22.87,114.45q-6.36,15.08-11.59,20-2.56,2.46-11.28,4v3.8H43.79v-3.8c-6.7-.47-11.06-1.52-13.08-3.12a7,7,0,0,1-3-5.59q0-4,3.49-12.1L37.9,102c-2.94-.86-5.77-1.82-8.49-2.84Z"/><circle class="cls-2" cx="58.5" cy="81.72" r="2.84"/><circle class="cls-2" cx="78.59" cy="81.72" r="2.84"/><path class="cls-2" d="M132.56,86.26A171.09,171.09,0,0,1,69.25,96.85,171.07,171.07,0,0,1,9.53,84.56c10.66,7.32,30.26,18.28,55.75,19.28,15.48.6,28.29-2.65,34.77-4.35A134.45,134.45,0,0,0,132.56,86.26Z"/></g></g></svg>